<?xml version="1.0" encoding="UTF-8"?>
<svg xmlns="http://www.w3.org/2000/svg" xmlns:xlink="http://www.w3.org/1999/xlink" width="55px" height="55px" viewBox="0 0 55 55" version="1.1">
<g id="surface1">
<path style=" stroke:none;fill-rule:nonzero;fill:rgb(36.078431%,61.960784%,62.745098%);fill-opacity:1;" d="M 52.363281 43.714844 C 50.441406 37.203125 40.789062 37.925781 36.625 36.058594 C 32.457031 34.1875 33.109375 27.914062 32.582031 26.824219 L 22.417969 26.824219 C 21.890625 27.914062 22.542969 34.1875 18.375 36.058594 C 14.210938 37.925781 4.558594 37.203125 2.636719 43.714844 C 1.574219 47.304688 1.625 48.402344 1.332031 52.382812 C 1.332031 52.382812 14.574219 55 27.199219 55 C 39.824219 55 53.667969 52.382812 53.667969 52.382812 C 53.375 48.402344 53.421875 47.304688 52.363281 43.714844 Z M 52.363281 43.714844 "/>
<path style=" stroke:none;fill-rule:nonzero;fill:rgb(26.666667%,56.862745%,60.784314%);fill-opacity:1;" d="M 52.363281 43.714844 C 50.441406 37.203125 40.789062 37.925781 36.625 36.058594 C 32.457031 34.1875 33.109375 27.914062 32.582031 26.824219 L 27.199219 26.824219 C 27.199219 26.824219 27.074219 35.621094 31.242188 37.492188 C 35.40625 39.359375 45.058594 38.640625 46.980469 45.148438 C 47.992188 48.570312 47.992188 49.726562 48.242188 53.265625 C 51.558594 52.78125 53.664062 52.382812 53.664062 52.382812 C 53.375 48.402344 53.421875 47.304688 52.363281 43.714844 Z M 52.363281 43.714844 "/>
<path style=" stroke:none;fill-rule:nonzero;fill:rgb(26.666667%,56.862745%,60.784314%);fill-opacity:1;" d="M 10.453125 53.8125 C 15.21875 54.421875 21.277344 55 27.199219 55 C 33.253906 55 39.589844 54.398438 44.542969 53.769531 L 44.542969 49.828125 C 44.542969 49.828125 34.742188 51.300781 27.175781 51.300781 C 19.613281 51.300781 10.453125 49.828125 10.453125 49.828125 Z M 10.453125 53.8125 "/>
<path style=" stroke:none;fill-rule:nonzero;fill:rgb(91.764706%,89.803922%,86.27451%);fill-opacity:1;" d="M 32.777344 39.035156 C 34.457031 38.378906 35.839844 37.414062 36.773438 36.242188 L 36.84375 36.152344 C 36.769531 36.121094 36.695312 36.089844 36.625 36.058594 C 32.460938 34.1875 33.109375 27.914062 32.582031 26.824219 L 22.417969 26.824219 C 21.890625 27.914062 22.542969 34.1875 18.375 36.058594 C 18.304688 36.089844 18.230469 36.121094 18.15625 36.152344 L 18.226562 36.242188 C 19.160156 37.414062 20.542969 38.378906 22.222656 39.035156 C 23.8125 39.65625 25.636719 39.984375 27.5 39.984375 C 29.363281 39.984375 31.1875 39.65625 32.777344 39.035156 Z M 32.777344 39.035156 "/>
<path style=" stroke:none;fill-rule:nonzero;fill:rgb(87.843137%,85.882353%,82.745098%);fill-opacity:1;" d="M 36.625 36.058594 C 35.875 35.722656 35.28125 35.242188 34.808594 34.675781 C 33.9375 35.773438 32.425781 36.644531 30.574219 37.109375 C 30.78125 37.257812 31.003906 37.386719 31.242188 37.492188 C 32.054688 37.855469 33.074219 38.121094 34.207031 38.363281 C 35.246094 37.78125 36.121094 37.058594 36.773438 36.238281 L 36.84375 36.152344 C 36.769531 36.121094 36.695312 36.089844 36.625 36.058594 Z M 36.625 36.058594 "/>
<path style=" stroke:none;fill-rule:nonzero;fill:rgb(85.882353%,70.588235%,56.862745%);fill-opacity:1;" d="M 34.808594 34.675781 C 32.65625 32.097656 33.011719 27.71875 32.582031 26.824219 L 22.417969 26.824219 C 21.984375 27.71875 22.34375 32.097656 20.191406 34.675781 C 21.507812 36.335938 24.289062 37.476562 27.5 37.476562 C 30.710938 37.476562 33.492188 36.335938 34.808594 34.675781 Z M 34.808594 34.675781 "/>
<path style=" stroke:none;fill-rule:nonzero;fill:rgb(80%,64.313725%,51.372549%);fill-opacity:1;" d="M 30.574219 37.109375 C 32.425781 36.644531 33.9375 35.773438 34.808594 34.675781 C 32.65625 32.097656 33.011719 27.71875 32.582031 26.824219 L 27.199219 26.824219 C 27.199219 26.824219 27.089844 34.648438 30.574219 37.109375 Z M 30.574219 37.109375 "/>
<path style=" stroke:none;fill-rule:nonzero;fill:rgb(77.647059%,61.960784%,49.803922%);fill-opacity:1;" d="M 21.050781 33.308594 C 22.738281 34.679688 24.714844 36.039062 27.488281 36.433594 C 30.273438 36.039062 32.242188 34.648438 33.929688 33.273438 C 32.527344 30.691406 32.960938 27.609375 32.582031 26.824219 L 22.417969 26.824219 C 22.035156 27.613281 22.460938 30.722656 21.050781 33.308594 Z M 21.050781 33.308594 "/>
<path style=" stroke:none;fill-rule:nonzero;fill:rgb(80%,64.313725%,51.372549%);fill-opacity:1;" d="M 38.753906 24.070312 C 39.84375 24.269531 41.019531 22.800781 41.378906 20.796875 C 41.738281 18.792969 41.148438 17.007812 40.058594 16.8125 C 38.96875 16.617188 37.792969 18.082031 37.429688 20.089844 C 37.070312 22.09375 37.664062 23.875 38.753906 24.070312 Z M 38.753906 24.070312 "/>
<path style=" stroke:none;fill-rule:nonzero;fill:rgb(85.882353%,70.588235%,56.862745%);fill-opacity:1;" d="M 13.589844 20.800781 C 13.953125 22.804688 15.128906 24.269531 16.21875 24.074219 C 17.308594 23.878906 17.898438 22.09375 17.539062 20.089844 C 17.179688 18.085938 16.003906 16.621094 14.910156 16.816406 C 13.820312 17.011719 13.230469 18.796875 13.589844 20.800781 Z M 13.589844 20.800781 "/>
<path style=" stroke:none;fill-rule:nonzero;fill:rgb(85.882353%,70.588235%,56.862745%);fill-opacity:1;" d="M 38.5625 8.167969 L 16.421875 8.167969 C 16.421875 8.167969 10.214844 33.449219 27.488281 35.894531 C 44.769531 33.449219 38.5625 8.167969 38.5625 8.167969 Z M 38.5625 8.167969 "/>
<path style=" stroke:none;fill-rule:nonzero;fill:rgb(80%,64.313725%,51.372549%);fill-opacity:1;" d="M 27.488281 35.894531 C 44.769531 33.449219 38.5625 8.167969 38.5625 8.167969 L 35.972656 8.167969 C 36.683594 18.726562 37.664062 24.335938 33.589844 30.453125 C 30.363281 35.296875 27.488281 35.894531 27.488281 35.894531 Z M 27.488281 35.894531 "/>
<path style=" stroke:none;fill-rule:nonzero;fill:rgb(80%,64.313725%,51.372549%);fill-opacity:1;" d="M 33.222656 9.523438 L 15.570312 14.375 C 17.066406 14.972656 19.980469 16.074219 26.21875 16.046875 C 29.691406 16.03125 37.328125 14.972656 39.015625 10.910156 Z M 33.222656 9.523438 "/>
<path style=" stroke:none;fill-rule:nonzero;fill:rgb(22.352941%,23.529412%,23.921569%);fill-opacity:1;" d="M 32.390625 0.945312 C 32.390625 0.945312 28.972656 -0.664062 24.375 0.316406 C 20.933594 1.050781 15.335938 3.390625 14.074219 8.402344 C 14.074219 8.402344 12.191406 16.589844 15.402344 20.117188 C 15.402344 20.117188 15.242188 16.917969 15.566406 14.371094 C 15.566406 14.371094 19.503906 15.335938 24.023438 15.347656 C 28.824219 15.355469 35.230469 14.566406 39.015625 10.910156 C 39.015625 10.910156 39.582031 14.386719 39.582031 20.117188 C 39.582031 20.117188 40.605469 18.546875 40.824219 16.460938 C 41.316406 11.726562 40.347656 5.085938 36.804688 5.304688 C 36.804688 5.304688 35.304688 2.324219 32.390625 0.945312 Z M 32.390625 0.945312 "/>
<path style=" stroke:none;fill-rule:nonzero;fill:rgb(23.137255%,23.137255%,23.137255%);fill-opacity:1;" d="M 40.148438 17.394531 C 35.40625 15.734375 28.917969 17.523438 28.917969 17.523438 C 28.300781 17.675781 27.886719 17.703125 27.671875 17.707031 C 27.671875 17.707031 27.5 17.707031 27.5 17.707031 L 27.328125 17.707031 C 27.113281 17.703125 26.699219 17.675781 26.082031 17.523438 C 26.082031 17.523438 19.59375 15.734375 14.851562 17.394531 C 14.851562 17.394531 14.710938 18.0625 14.851562 18.96875 C 14.851562 18.96875 14.863281 19.109375 15.015625 19.167969 C 15.015625 19.167969 15.535156 19.328125 15.667969 19.855469 C 15.667969 19.855469 15.964844 21.042969 16.0625 21.589844 C 16.0625 21.589844 16.222656 22.640625 16.796875 23.230469 C 16.796875 23.230469 17.300781 23.871094 18.589844 24.160156 C 18.589844 24.160156 20.265625 24.589844 22.355469 24.339844 C 22.355469 24.339844 23.847656 24.15625 24.613281 23.4375 C 24.613281 23.4375 25.460938 22.710938 25.929688 21.308594 C 25.929688 21.308594 26.074219 20.878906 26.390625 19.941406 C 26.390625 19.941406 26.539062 19.304688 27.5 19.261719 C 28.457031 19.304688 28.605469 19.941406 28.605469 19.941406 C 28.921875 20.878906 29.066406 21.308594 29.066406 21.308594 C 29.535156 22.714844 30.382812 23.4375 30.382812 23.4375 C 31.148438 24.15625 32.640625 24.339844 32.640625 24.339844 C 34.730469 24.589844 36.40625 24.160156 36.40625 24.160156 C 37.695312 23.871094 38.199219 23.230469 38.199219 23.230469 C 38.777344 22.640625 38.933594 21.589844 38.933594 21.589844 C 39.03125 21.042969 39.328125 19.855469 39.328125 19.855469 C 39.460938 19.328125 39.980469 19.167969 39.980469 19.167969 C 40.132812 19.109375 40.144531 18.96875 40.144531 18.96875 C 40.289062 18.0625 40.148438 17.394531 40.148438 17.394531 Z M 25.585938 19.972656 C 25.585938 19.972656 25.03125 22.472656 24.101562 23.152344 C 24.101562 23.152344 23.203125 23.894531 21.441406 23.925781 C 21.441406 23.925781 18.820312 24.039062 17.644531 23.164062 C 17.644531 23.164062 16.871094 22.617188 16.625 20.871094 C 16.625 20.871094 16.292969 18.835938 16.71875 18.253906 C 16.71875 18.253906 17.300781 17.285156 19.058594 17.3125 C 19.058594 17.3125 20.558594 17.285156 21.777344 17.40625 C 21.777344 17.40625 23.292969 17.519531 24.636719 17.957031 C 24.636719 17.953125 26.097656 18.359375 25.585938 19.972656 Z M 38.375 20.871094 C 38.125 22.613281 37.351562 23.164062 37.351562 23.164062 C 36.179688 24.039062 33.554688 23.925781 33.554688 23.925781 C 31.796875 23.894531 30.898438 23.152344 30.898438 23.152344 C 29.96875 22.46875 29.414062 19.96875 29.414062 19.96875 C 28.898438 18.359375 30.363281 17.953125 30.363281 17.953125 C 31.707031 17.519531 33.21875 17.402344 33.21875 17.402344 C 34.441406 17.28125 35.9375 17.3125 35.9375 17.3125 C 37.699219 17.28125 38.277344 18.25 38.277344 18.25 C 38.707031 18.832031 38.375 20.871094 38.375 20.871094 Z M 38.375 20.871094 "/>
</g>
</svg>
