<?xml version="1.0" encoding="UTF-8"?>
<svg xmlns="http://www.w3.org/2000/svg" xmlns:xlink="http://www.w3.org/1999/xlink" width="55px" height="55px" viewBox="0 0 55 55" version="1.1">
<g id="surface1">
<path style=" stroke:none;fill-rule:nonzero;fill:rgb(0%,0%,0%);fill-opacity:1;" d="M 22.230469 4.46875 C 20.28125 5.042969 17.300781 6.300781 15.699219 7.5625 C 12.261719 9.96875 8.019531 17.761719 8.019531 21.425781 C 8.019531 22.800781 7.332031 24.0625 6.644531 24.40625 C 5.5 24.75 5.5 25.4375 6.417969 27.15625 C 7.21875 28.417969 8.480469 33.457031 9.167969 38.5 C 9.96875 43.425781 11.113281 48.238281 11.800781 48.925781 C 13.292969 50.988281 41.707031 50.988281 43.199219 48.925781 C 43.886719 48.238281 45.03125 43.425781 45.832031 38.5 C 46.519531 33.457031 47.78125 28.417969 48.46875 27.269531 C 49.5 25.78125 49.386719 24.863281 48.355469 23.832031 C 47.667969 23.144531 46.980469 21.542969 46.980469 20.394531 C 46.980469 17.988281 44 11.800781 41.9375 9.625 C 37.8125 5.5 28.300781 3.09375 22.230469 4.46875 Z M 37.46875 10.425781 C 40.792969 12.488281 42.167969 14.4375 42.511719 17.761719 C 42.511719 18.332031 43.082031 19.824219 43.65625 20.855469 C 44.457031 22.34375 44.34375 22.917969 43.3125 23.144531 C 38.613281 23.605469 36.894531 23.832031 33.457031 23.949219 C 31.394531 23.949219 29.90625 24.636719 30.019531 25.324219 C 30.25 26.011719 29.449219 26.8125 28.300781 26.925781 C 27.269531 27.15625 26.582031 26.8125 27.042969 26.238281 C 27.386719 25.667969 28.1875 25.550781 28.875 25.894531 C 29.675781 26.355469 29.792969 26.125 29.332031 25.4375 C 28.300781 23.71875 24.980469 24.175781 22.113281 26.355469 C 20.28125 27.957031 20.167969 27.957031 21.65625 26.011719 C 23.375 23.832031 21.886719 23.261719 19.707031 25.4375 C 18.90625 26.238281 18.332031 26.355469 18.332031 25.894531 C 18.332031 25.324219 17.417969 25.667969 16.386719 26.46875 C 14.550781 27.957031 14.4375 27.84375 15.925781 26.011719 C 17.300781 24.292969 17.1875 24.0625 15.011719 24.0625 C 12.03125 24.0625 11.6875 19.9375 14.207031 15.011719 C 18.332031 7.105469 28.644531 5.042969 37.46875 10.425781 Z M 19.480469 31.855469 C 19.480469 31.167969 24.175781 30.9375 31.394531 31.167969 C 37.925781 31.394531 43.082031 31.855469 42.738281 32.3125 C 42.511719 32.886719 42.96875 33.230469 43.769531 33.230469 C 44.800781 33.230469 44.800781 33.574219 44 34.144531 C 43.3125 34.605469 42.855469 36.324219 42.96875 38.042969 C 43.082031 39.875 42.625 41.25 41.9375 41.25 C 41.25 41.25 41.480469 41.824219 42.394531 42.394531 C 43.65625 43.199219 42.738281 43.542969 39.1875 43.542969 C 35.863281 43.542969 34.488281 44 35.0625 44.800781 C 35.519531 45.488281 37.238281 45.832031 39.1875 45.375 C 42.167969 44.800781 42.28125 44.917969 40.792969 46.40625 C 38.84375 48.355469 32.542969 48.699219 31.394531 46.863281 C 30.9375 46.175781 29.105469 45.949219 26.8125 46.292969 C 24.636719 46.636719 21.082031 47.324219 18.90625 47.667969 C 13.40625 48.582031 12.03125 46.75 12.03125 38.269531 L 11.917969 31.28125 L 15.699219 32.082031 C 17.988281 32.65625 19.480469 32.542969 19.480469 31.855469 Z M 19.480469 31.855469 "/>
<path style=" stroke:none;fill-rule:nonzero;fill:rgb(0%,0%,0%);fill-opacity:1;" d="M 24.636719 33.230469 C 24.980469 33.800781 26.355469 34.375 27.5 34.375 C 28.644531 34.375 30.019531 33.800781 30.363281 33.230469 C 30.824219 32.542969 29.5625 32.082031 27.5 32.082031 C 25.4375 32.082031 24.175781 32.542969 24.636719 33.230469 Z M 24.636719 33.230469 "/>
<path style=" stroke:none;fill-rule:nonzero;fill:rgb(0%,0%,0%);fill-opacity:1;" d="M 13.75 35.636719 C 13.75 36.207031 14.78125 36.667969 15.925781 36.667969 C 17.1875 36.667969 18.449219 36.207031 18.792969 35.636719 C 19.136719 35.0625 18.105469 34.605469 16.613281 34.605469 C 15.011719 34.605469 13.75 35.0625 13.75 35.636719 Z M 13.75 35.636719 "/>
<path style=" stroke:none;fill-rule:nonzero;fill:rgb(0%,0%,0%);fill-opacity:1;" d="M 35.519531 35.636719 C 35.519531 36.207031 36.78125 36.667969 38.386719 36.667969 C 39.988281 36.667969 41.25 36.207031 41.25 35.636719 C 41.25 35.0625 39.988281 34.605469 38.386719 34.605469 C 36.78125 34.605469 35.519531 35.0625 35.519531 35.636719 Z M 35.519531 35.636719 "/>
<path style=" stroke:none;fill-rule:nonzero;fill:rgb(0%,0%,0%);fill-opacity:1;" d="M 24.636719 37.8125 C 24.980469 38.386719 26.582031 38.957031 28.1875 38.957031 C 29.675781 38.957031 30.9375 38.386719 30.9375 37.8125 C 30.9375 37.125 29.332031 36.667969 27.386719 36.667969 C 25.4375 36.667969 24.175781 37.125 24.636719 37.8125 Z M 24.636719 37.8125 "/>
<path style=" stroke:none;fill-rule:nonzero;fill:rgb(0%,0%,0%);fill-opacity:1;" d="M 13.75 40.105469 C 13.75 40.675781 15.011719 41.25 16.613281 41.25 C 18.21875 41.25 19.480469 40.675781 19.480469 40.105469 C 19.480469 39.417969 18.21875 38.957031 16.613281 38.957031 C 15.011719 38.957031 13.75 39.417969 13.75 40.105469 Z M 13.75 40.105469 "/>
<path style=" stroke:none;fill-rule:nonzero;fill:rgb(0%,0%,0%);fill-opacity:1;" d="M 34.949219 40.105469 C 35.292969 40.675781 36.667969 41.25 37.8125 41.25 C 38.957031 41.25 40.332031 40.675781 40.675781 40.105469 C 41.136719 39.417969 39.875 38.957031 37.8125 38.957031 C 35.75 38.957031 34.488281 39.417969 34.949219 40.105469 Z M 34.949219 40.105469 "/>
<path style=" stroke:none;fill-rule:nonzero;fill:rgb(0%,0%,0%);fill-opacity:1;" d="M 25.207031 42.394531 C 25.207031 42.96875 26.238281 43.542969 27.386719 43.542969 C 28.644531 43.542969 30.019531 42.96875 30.363281 42.394531 C 30.824219 41.707031 29.792969 41.25 28.1875 41.25 C 26.582031 41.25 25.207031 41.707031 25.207031 42.394531 Z M 25.207031 42.394531 "/>
<path style=" stroke:none;fill-rule:nonzero;fill:rgb(0%,0%,0%);fill-opacity:1;" d="M 14.894531 44.6875 C 14.894531 45.261719 15.925781 45.832031 17.074219 45.832031 C 18.332031 45.832031 19.707031 45.261719 20.050781 44.6875 C 20.511719 44 19.480469 43.542969 17.875 43.542969 C 16.269531 43.542969 14.894531 44 14.894531 44.6875 Z M 14.894531 44.6875 "/>
</g>
</svg>
