<?xml version="1.0" standalone="no"?>
<!DOCTYPE svg PUBLIC "-//W3C//DTD SVG 20010904//EN"
 "http://www.w3.org/TR/2001/REC-SVG-20010904/DTD/svg10.dtd">
<svg version="1.0" xmlns="http://www.w3.org/2000/svg"
 width="48.000000pt" height="48.000000pt" viewBox="0 0 48.000000 48.000000"
 preserveAspectRatio="xMidYMid meet">

<g transform="translate(0.000000,48.000000) scale(0.100000,-0.100000)"
fill="#000000" stroke="none">
<path d="M194 441 c-17 -5 -43 -16 -57 -27 -30 -21 -67 -89 -67 -121 0 -12 -6
-23 -12 -26 -10 -3 -10 -9 -2 -24 7 -11 18 -55 24 -99 7 -43 17 -85 23 -91 13
-18 261 -18 274 0 6 6 16 48 23 91 6 44 17 88 23 98 9 13 8 21 -1 30 -6 6 -12
20 -12 30 0 21 -26 75 -44 94 -36 36 -119 57 -172 45z m133 -52 c29 -18 41
-35 44 -64 0 -5 5 -18 10 -27 7 -13 6 -18 -3 -20 -41 -4 -56 -6 -86 -7 -18 0
-31 -6 -30 -12 2 -6 -5 -13 -15 -14 -9 -2 -15 1 -11 6 3 5 10 6 16 3 7 -4 8
-2 4 4 -9 15 -38 11 -63 -8 -16 -14 -17 -14 -4 3 15 19 2 24 -17 5 -7 -7 -12
-8 -12 -4 0 5 -8 2 -17 -5 -16 -13 -17 -12 -4 4 12 15 11 17 -8 17 -26 0 -29
36 -7 79 36 69 126 87 203 40z m-157 -187 c0 6 41 8 104 6 57 -2 102 -6 99
-10 -2 -5 2 -8 9 -8 9 0 9 -3 2 -8 -6 -4 -10 -19 -9 -34 1 -16 -3 -28 -9 -28
-6 0 -4 -5 4 -10 11 -7 3 -10 -28 -10 -29 0 -41 -4 -36 -11 4 -6 19 -9 36 -5
26 5 27 4 14 -9 -17 -17 -72 -20 -82 -4 -4 6 -20 8 -40 5 -19 -3 -50 -9 -69
-12 -48 -8 -60 8 -60 82 l-1 61 33 -7 c20 -5 33 -4 33 2z"/>
<path d="M215 190 c3 -5 15 -10 25 -10 10 0 22 5 25 10 4 6 -7 10 -25 10 -18
0 -29 -4 -25 -10z"/>
<path d="M120 169 c0 -5 9 -9 19 -9 11 0 22 4 25 9 3 5 -6 9 -19 9 -14 0 -25
-4 -25 -9z"/>
<path d="M310 169 c0 -5 11 -9 25 -9 14 0 25 4 25 9 0 5 -11 9 -25 9 -14 0
-25 -4 -25 -9z"/>
<path d="M215 150 c3 -5 17 -10 31 -10 13 0 24 5 24 10 0 6 -14 10 -31 10 -17
0 -28 -4 -24 -10z"/>
<path d="M120 130 c0 -5 11 -10 25 -10 14 0 25 5 25 10 0 6 -11 10 -25 10 -14
0 -25 -4 -25 -10z"/>
<path d="M305 130 c3 -5 15 -10 25 -10 10 0 22 5 25 10 4 6 -7 10 -25 10 -18
0 -29 -4 -25 -10z"/>
<path d="M220 110 c0 -5 9 -10 19 -10 11 0 23 5 26 10 4 6 -5 10 -19 10 -14 0
-26 -4 -26 -10z"/>
<path d="M130 90 c0 -5 9 -10 19 -10 11 0 23 5 26 10 4 6 -5 10 -19 10 -14 0
-26 -4 -26 -10z"/>
</g>
</svg>
