<?xml version="1.0" standalone="no"?>
<!DOCTYPE svg PUBLIC "-//W3C//DTD SVG 20010904//EN"
 "http://www.w3.org/TR/2001/REC-SVG-20010904/DTD/svg10.dtd">
<svg version="1.0" xmlns="http://www.w3.org/2000/svg"
 width="24.000000pt" height="24.000000pt" viewBox="0 0 24.000000 24.000000"
 preserveAspectRatio="xMidYMid meet">

<g transform="translate(0.000000,24.000000) scale(0.100000,-0.100000)"
fill="#000000" stroke="none">
<path d="M67 234 c-4 -4 -7 -16 -7 -26 0 -11 -7 -18 -20 -18 -22 0 -26 -10
-10 -26 5 -5 10 -43 12 -84 l3 -75 78 -3 77 -3 0 80 c0 44 5 83 10 86 17 10
11 25 -9 25 -13 0 -21 8 -23 23 -3 19 -10 22 -53 25 -28 2 -54 0 -58 -4z m91
-31 c2 -9 -9 -13 -37 -13 -39 0 -50 8 -34 24 11 11 66 2 71 -11z m-70 -114
c-2 -36 -7 -63 -13 -62 -11 3 -19 107 -10 131 12 33 26 -7 23 -69z m90 0 c-2
-36 -7 -63 -13 -62 -11 3 -19 107 -10 131 12 33 26 -7 23 -69z m-48 6 c0 -37
-4 -65 -10 -65 -6 0 -10 28 -10 65 0 37 4 65 10 65 6 0 10 -28 10 -65z"/>
</g>
</svg>
